<?xml version="1.0" encoding="UTF-8" standalone="no"?>
<svg width="40px" height="40px" viewBox="0 0 40 40" version="1.1" xmlns="http://www.w3.org/2000/svg" xmlns:xlink="http://www.w3.org/1999/xlink">
    <!-- Generator: Sketch 48.2 (47327) - http://www.bohemiancoding.com/sketch -->
    <title>music</title>
    <desc>Created with Sketch.</desc>
    <defs></defs>
    <g id="Artboard" stroke="none" stroke-width="1" fill="none" fill-rule="evenodd" transform="translate(-1369.000000, -1404.000000)">
        <g id="music" transform="translate(1369.000000, 1404.000000)" fill-rule="nonzero">
            <path d="M39.3103448,20 C39.3103448,30.6654097 30.6654097,39.3103448 20,39.3103448 C9.33459034,39.3103448 0.689655172,30.6654097 0.689655172,20 C0.689655172,9.33459034 9.33459034,0.689655172 20,0.689655172 C30.6654097,0.689655172 39.3103448,9.33459034 39.3103448,20 Z" id="Shape" fill="#C5E4FA"></path>
            <path d="M7.38685379,34.6821124 C9.21336207,36.4224138 11.3658407,37.7855607 13.7176724,38.6961207 L37.2413793,15.1724138 L37.2413793,10.7381469 C36.514009,9.53125034 35.6546338,8.40786621 34.6821124,7.38685379 L7.38685379,34.6821124 Z" id="Shape" fill="#E3F2FF"></path>
            <path d="M6.04256483,33.26778 L33.1034483,6.20689655 L28.9655172,6.20689655 L4.2887931,30.8836207 C4.81142276,31.7214441 5.3987069,32.5188579 6.04256483,33.26778 Z" id="Shape" fill="#E3F2FF"></path>
            <path d="M3.99245724,28.4213366 L26.8965517,5.51724138 L24.8275862,4.13793103 L3.00646552,25.9590517 C3.27855586,26.8022628 3.60722,27.6239228 3.99245724,28.4213366 Z" id="Shape" fill="#E3F2FF"></path>
            <path d="M20,0.689655172 C9.33459034,0.689655172 0.689655172,9.33459034 0.689655172,20 C0.689655172,30.6654097 9.33459034,39.3103448 20,39.3103448 C30.6654097,39.3103448 39.3103448,30.6654097 39.3103448,20 C39.3103448,9.33459034 30.6654097,0.689655172 20,0.689655172 Z M20,35.1724138 C13.1788793,35.1724138 7.19558207,30.6223062 5.37446138,24.0463366 C3.55603448,17.4730607 6.34698276,10.4929959 12.1982759,6.98545241 C18.049569,3.47790966 25.5226297,4.30765103 30.4633621,9.01400897 L30.9321124,9.47467655 C31.1099138,9.66056069 31.2823276,9.84913793 31.4493538,10.0404097 C35.3502159,14.5258621 36.2742455,20.8782331 33.8092676,26.2904097 C31.344289,31.6998924 25.9455821,35.1724138 20,35.1724138 Z" id="Shape" fill="#72CAAF"></path>
            <path d="M20,35.1724138 C11.6217676,35.1724138 4.82758621,28.3782331 4.82758621,20 L3.68265103,20 C2.86368552,19.9973062 2.08512966,20.3582972 1.55980621,20.9859917 C1.03448276,21.6136855 0.813577931,22.4434269 0.959051724,23.2489228 C2.53502138,32.5323276 10.5792028,39.326509 19.9973062,39.326509 C29.4154097,39.326509 37.4568966,32.5323276 39.0355607,23.2489228 C39.1783407,22.4434269 38.9601297,21.6163793 38.4348062,20.9886855 C37.9121766,20.3609917 37.1363145,20 36.317349,20 L35.1724138,20 C35.1724138,28.3782331 28.3782331,35.1724138 20,35.1724138 Z" id="Shape" fill="#66BFA1"></path>
            <path d="M27.3437503,17.0770476 C27.4973062,16.9450434 27.5862069,16.7537717 27.5862069,16.5517241 L27.5862069,11.7241379 C27.5915952,11.3820041 27.3437503,11.0883621 27.0070041,11.0344828 L18.7311421,9.65517241 C18.531789,9.62015103 18.3270476,9.67672414 18.1734917,9.80603448 C18.0145476,9.9407331 17.9256469,10.1373924 17.9310345,10.3448276 L17.9310345,19.4612069 C17.4784483,19.3588366 17.0150862,19.3103448 16.5517241,19.3103448 C13.5102372,19.3103448 11.0344828,21.4762931 11.0344828,24.137931 C11.0344828,26.799569 13.5102372,28.9655172 16.5517241,28.9655172 C19.593211,28.9655172 22.0689655,26.799569 22.0689655,24.137931 L22.0689655,16.4493538 L26.7860993,17.2413793 C26.9881469,17.2710131 27.1928883,17.2117455 27.3437503,17.0770476 Z" id="Shape" fill="#FAEFDE"></path>
            <path d="M20,0 C8.95474138,0 0,8.95474138 0,20 C0,31.0452586 8.95474138,40 20,40 C31.0452586,40 40,31.0452586 40,20 C40,8.95474138 31.0452586,0 20,0 Z M20,38.6206897 C9.71713379,38.6206897 1.37931034,30.2828662 1.37931034,20 C1.37931034,9.71713379 9.71713379,1.37931034 20,1.37931034 C30.2828662,1.37931034 38.6206897,9.71713379 38.6206897,20 C38.6206897,30.2828662 30.2828662,38.6206897 20,38.6206897 Z" id="Shape" fill="#425080"></path>
            <path d="M20,33.1034483 C19.620151,33.1034483 19.3103448,33.4132545 19.3103448,33.7931034 L19.3103448,35.1724138 C19.3103448,35.5522628 19.620151,35.862069 20,35.862069 C20.379849,35.862069 20.6896552,35.5522628 20.6896552,35.1724138 L20.6896552,33.7931034 C20.6896552,33.4132545 20.379849,33.1034483 20,33.1034483 Z" id="Shape" fill="#425080"></path>
            <path d="M24.137931,33.1573276 C24.0301724,32.8044179 23.6584055,32.5969828 23.3001076,32.6939655 C22.9391166,32.7909483 22.7235993,33.1546338 22.8071124,33.5183193 L23.1654097,34.8491379 C23.26778,35.218211 23.6476297,35.4364228 24.0167028,35.3340517 C24.3857759,35.2343752 24.6039869,34.8518317 24.5043103,34.4827586 L24.137931,33.1573276 Z" id="Shape" fill="#425080"></path>
            <path d="M13.6206897,31.39278 C13.4617455,31.3011855 13.2731683,31.27694 13.0953662,31.3227372 C12.9175648,31.3712283 12.7667028,31.4897628 12.6751076,31.6487069 L11.9854524,32.8421338 C11.8157331,33.1681034 11.9315731,33.5721986 12.2521552,33.7580821 C12.5727372,33.9439655 12.98222,33.8415952 13.1788793,33.531789 L13.8685345,32.3383621 C13.9628234,32.1794179 13.987069,31.9908407 13.9412717,31.8130386 C13.8954745,31.637931 13.7796338,31.4843752 13.6206897,31.39278 Z" id="Shape" fill="#425080"></path>
            <path d="M27.3248924,31.6487069 C27.1255386,31.3362069 26.7160559,31.2365303 26.3981683,31.4224138 C26.0775862,31.6056034 25.9590517,32.0096986 26.1314655,32.3383621 L26.8211207,33.531789 C26.9369614,33.7553883 27.1686421,33.8981683 27.4218752,33.9008621 C27.6751076,33.9035559 27.9094828,33.7688579 28.0334055,33.5479524 C28.1573276,33.3270476 28.1492455,33.0549572 28.0145476,32.8421338 L27.3248924,31.6487069 Z" id="Shape" fill="#425080"></path>
            <path d="M16.6971986,32.66972 C16.3281248,32.5727372 15.9536641,32.7909483 15.8539869,33.1573276 L15.4956897,34.4827586 C15.4229524,34.7225214 15.4849138,34.9865303 15.6627159,35.1670262 C15.8378234,35.3475214 16.0991379,35.4175648 16.3415952,35.3502159 C16.5840517,35.2828662 16.7699352,35.0862069 16.826509,34.8410559 L17.1875,33.5102372 C17.281789,33.1438579 17.0635779,32.7667028 16.6971986,32.66972 Z" id="Shape" fill="#425080"></path>
            <path d="M27.3437503,17.0770476 C27.4973062,16.9450434 27.5862069,16.7537717 27.5862069,16.5517241 L27.5862069,11.7241379 C27.5915952,11.3820041 27.3437503,11.0883621 27.0070041,11.0344828 L18.7311421,9.65517241 C18.531789,9.62015103 18.3270476,9.67672414 18.1734917,9.80603448 C18.0145476,9.9407331 17.9256469,10.1373924 17.9310345,10.3448276 L17.9310345,19.4612069 C17.4784483,19.3588366 17.0150862,19.3103448 16.5517241,19.3103448 C13.5102372,19.3103448 11.0344828,21.4762931 11.0344828,24.137931 C11.0344828,26.799569 13.5102372,28.9655172 16.5517241,28.9655172 C19.593211,28.9655172 22.0689655,26.799569 22.0689655,24.137931 L22.0689655,16.4493538 L26.7860993,17.2413793 C26.9881469,17.2710131 27.1928883,17.2117455 27.3437503,17.0770476 Z M26.2068966,15.7381469 L21.4897628,14.951509 C21.2877159,14.9191814 21.0829745,14.9757545 20.9294179,15.1104524 C20.7758621,15.2424572 20.6869614,15.4364228 20.6896552,15.6411641 L20.6896552,24.137931 C20.6896552,26.0425648 18.8335131,27.5862069 16.5517241,27.5862069 C14.2699352,27.5862069 12.4137931,26.0425648 12.4137931,24.137931 C12.4137931,22.2332972 14.2699352,20.6896552 16.5517241,20.6896552 C17.1713366,20.6896552 17.7855607,20.8081897 18.3593752,21.0425648 C18.5721986,21.1287717 18.8146552,21.1045262 19.0059269,20.9752159 C19.1971986,20.8459055 19.3103448,20.6303883 19.3103448,20.3987069 L19.3103448,11.1584055 L26.2068966,12.3114228 L26.2068966,15.7381469 Z" id="Shape" fill="#425080"></path>
            <path d="M25.0700434,6.42780207 C25.5630386,6.61368552 26.0452586,6.82381448 26.5167028,7.06088345 C26.6136855,7.11206897 26.7187503,7.13631448 26.826509,7.13900897 C27.1443966,7.13631448 27.4218752,6.91810345 27.4946124,6.60829724 C27.567349,6.29849172 27.4218752,5.98060345 27.139009,5.83512966 C26.6217676,5.57650897 26.0937503,5.34482759 25.5522628,5.14547448 C25.2020476,5.03771586 24.83028,5.21821103 24.7009697,5.56303862 C24.5743538,5.90517241 24.7332972,6.28771586 25.0700434,6.43318966 L25.0700434,6.42780207 Z" id="Shape" fill="#425080"></path>
            <path d="M9.75754345,9.75754345 C13.0522628,6.4789869 17.7128234,4.97036621 22.3033407,5.70312483 C22.6831897,5.76508621 23.0414869,5.50377172 23.1034483,5.12392276 C23.1654097,4.7440731 22.9040952,4.38577586 22.5242455,4.32381448 C15.7246766,3.21928897 8.98706897,6.62984897 5.8512931,12.7667028 C2.71821103,18.9008621 3.90355586,26.3577586 8.78502138,31.2203662 C9.05980621,31.4547414 9.46659517,31.4385779 9.72252138,31.1853448 C9.97844828,30.9294179 9.99191793,30.5226297 9.75754345,30.2478448 C4.09752138,24.5905172 4.09752138,15.414871 9.75754345,9.75754345 Z" id="Shape" fill="#425080"></path>
            <path d="M31.2149786,8.78502138 C30.7596986,8.32974138 30.2774786,7.90140069 29.7737069,7.50269379 C29.5824352,7.33028 29.307651,7.27640069 29.0651938,7.36799586 C28.8227372,7.45689655 28.6530172,7.67510759 28.6233834,7.93372828 C28.5937503,8.18965517 28.7095903,8.44288828 28.9251076,8.58566828 C29.3857759,8.94935379 29.8248924,9.34267241 30.2424572,9.75754345 C35.8970903,15.414871 35.8970903,24.5851297 30.2424572,30.2424572 C30.0457972,30.4094828 29.9595903,30.6734917 30.0188579,30.9267241 C30.0808193,31.1772628 30.2774786,31.3739228 30.5280172,31.4358834 C30.7812503,31.495151 31.0452586,31.4116379 31.2149786,31.2149786 C37.405711,25.0188579 37.405711,14.9811421 31.2149786,8.78502138 Z" id="Shape" fill="#425080"></path>
        </g>
    </g>
</svg>